<svg xmlns="http://www.w3.org/2000/svg" xmlns:xlink="http://www.w3.org/1999/xlink" width="857.726" height="590.505" viewBox="0 0 857.726 590.505"><defs><style>.a{fill:url(#a);}</style><linearGradient id="a" y1="0.5" x2="1" y2="0.5" gradientUnits="objectBoundingBox"><stop offset="0" stop-color="#0a2a5f" stop-opacity="0.969"/><stop offset="0" stop-color="#82b0f7"/><stop offset="1" stop-color="#544fc3"/></linearGradient></defs><path class="a" d="M1465.587,302.6c-1.04-1.681,1.132,1.7,0,0C1424,240.085,1389.6,284.254,1228.3,159.543c-163.678-95.161-291.289,33.57-300.756,41.5-12.575,10.533-31.6,22.577-49.481,18.964-211.385-24.834-249.243,77.254-262.152,111.428-12.986,34.381-15.2,166.261,48.681,198.252S766.435,699.6,878.094,699.6c7.242,0,171.534-5.878,248.9,5.761,122.06,18.364,200.077,5.99,245.6,1.913,1.906-.171,93.691-7.115,93.691-7.115V658.706s-.559-55.294-.7-86.2" transform="translate(-608.558 -124.642)"/></svg>