<svg xmlns="http://www.w3.org/2000/svg" xmlns:xlink="http://www.w3.org/1999/xlink" width="1405.615" height="510.81" viewBox="0 0 1405.615 510.81"><defs><style>.a{opacity:0.999;}.b{fill:#f5c78f;}.c{fill:#e38c42;}.d{fill:#9eb8ef;}.e{opacity:0.5;}.f{fill:#a8ccff;}.g{fill:#ff912b;}.h{fill:#070707;}.i{fill:url(#a);}.j{fill:#454545;}.k{fill:url(#b);}.l{fill:url(#c);}.m{fill:#f2f6f8;}.n{fill:url(#d);}.o{fill:#2a3967;}.p{fill:#eaeeef;}.q{fill:#002822;}.r{fill:url(#e);}.s{fill:url(#f);}.t{fill:#b1c1f9;}.u{fill:#1b294b;}.v{fill:#b53c37;}.w{fill:#fb7c1d;}.x{fill:#96c3ea;}.y{fill:#fd9c28;}.z{fill:#e65924;}.aa{fill:#a5d2ff;}.ab{fill:#cde3ff;}.ac{fill:url(#g);}.ad{fill:url(#h);}.ae{fill:#b4d8fd;opacity:0.87;}.af{fill:#b8db70;}.ag{fill:#4ac195;}.ah{fill:#81aef6;}.ai{fill:#d8a982;}.aj{fill:#a9b5bf;}.ak{fill:#f5c99d;}.al{fill:#454242;}.am{fill:#1f1d1d;}.an{fill:#504b4b;}.ao{fill:#a1b2b1;}.ap{fill:#859379;}.aq{fill:#837f76;}.ar{fill:#555050;}</style><linearGradient id="a" y1="0.5" x2="1" y2="0.5" gradientUnits="objectBoundingBox"><stop offset="0" stop-color="#eff3ff"/><stop offset="1" stop-color="#7d97f4"/></linearGradient><linearGradient id="b" y1="0.5" x2="1" y2="0.5" gradientUnits="objectBoundingBox"><stop offset="0" stop-color="#f2f6f8"/><stop offset="1" stop-color="#f2f6f8"/></linearGradient><linearGradient id="c" y1="0.5" x2="1" y2="0.5" gradientUnits="objectBoundingBox"><stop offset="0" stop-color="#f2f6f8"/><stop offset="1" stop-color="#f2f6f8"/></linearGradient><linearGradient id="d" y1="0.5" x2="1" y2="0.5" gradientUnits="objectBoundingBox"><stop offset="0" stop-color="#cbce55"/><stop offset="0" stop-color="#fff"/><stop offset="1" stop-color="#fff"/><stop offset="1" stop-color="#b5d4ff"/></linearGradient><linearGradient id="e" y1="0.5" x2="1" y2="0.5" gradientUnits="objectBoundingBox"><stop offset="0" stop-color="#f2f6f8"/><stop offset="1" stop-color="#b6e6ff"/></linearGradient><linearGradient id="f" y1="0.5" x2="1" y2="0.5" gradientUnits="objectBoundingBox"><stop offset="0" stop-color="#fff"/><stop offset="1" stop-color="#e0e3e5"/><stop offset="1" stop-color="#b6e6ff"/></linearGradient><linearGradient id="g" y1="0.5" x2="1" y2="0.5" gradientUnits="objectBoundingBox"><stop offset="0" stop-color="#fff"/><stop offset="1" stop-color="#7ea7f2"/><stop offset="1" stop-color="#c4e6ff"/></linearGradient><linearGradient id="h" y1="0.5" x2="1" y2="0.5" gradientUnits="objectBoundingBox"><stop offset="0" stop-color="#fff"/><stop offset="1" stop-color="#bfdaff"/></linearGradient></defs><g transform="translate(0 -51.819)"><g transform="translate(123.703)"><g class="a" transform="translate(585.354 51.819)"><path class="b" d="M1260.976,175.733V667.121h-65.5V156.674C1220.25,160.636,1241.505,167.87,1260.976,175.733Z" transform="translate(-1195.471 -156.674)"/><g transform="translate(0 20.112)"><path class="c" d="M1260.976,207.436l-65.506-27.819v33.276l65.506,27.82Z" transform="translate(-1195.471 -179.617)"/><g transform="translate(0 69.607)"><path class="c" d="M1260.976,286.84v33.276l-65.506-27.82V259.02Z" transform="translate(-1195.471 -259.02)"/><path class="c" d="M1260.976,368.167v33.276l-65.506-27.82V340.347Z" transform="translate(-1195.471 -269.054)"/><path class="c" d="M1260.976,449.5v33.27l-65.506-27.82V421.68Z" transform="translate(-1195.471 -279.088)"/><path class="d" d="M1260.976,530.827V564.1l-65.506-27.82V503.007Z" transform="translate(-1195.471 -289.122)"/></g></g></g><g class="e" transform="translate(1025.098 112.999)"><path class="f" d="M1697.1,285.576c24.8,4.614,46.5,11.514,65.5,20.277v428.99h-65.5Z" transform="translate(-1697.104 -285.576)"/><path class="g" d="M1762.609,305.853v13.315l-65.5-24.039v-9.553C1721.906,290.19,1743.6,297.09,1762.609,305.853Z" transform="translate(-1697.104 -285.576)"/><g transform="translate(0 40.947)"><path class="g" d="M1762.609,356.325v28.753l-65.5-24.039V332.286Z" transform="translate(-1697.104 -332.286)"/><path class="g" d="M1762.609,426.6v28.753l-65.5-24.039V402.56Z" transform="translate(-1697.104 -340.956)"/><path class="g" d="M1762.609,496.877v28.749l-65.5-24.039V472.838Z" transform="translate(-1697.104 -349.627)"/><path class="g" d="M1762.609,567.15V595.9l-65.5-24.039V543.112Z" transform="translate(-1697.104 -358.297)"/></g></g><g transform="translate(306.282 120.567)"><path class="h" d="M960.775,711.879h601.369l203.1-18.413s-36.342-91.137-46.25-92.507-739.168,0-739.168,0Z" transform="translate(-887.443 -331.98)"/><path class="i" d="M1841.687,681.07c-14.964,6.162-105.428,7.531-105.428,7.531s2.041-111.589-91.144-98.581-76.9,105.623-76.9,105.623l-448,8.047s7.278-117.636-91.635-105.262c-82.179,10.278-61.069,104.82-61.069,104.82-81.925,4.263-90.391-23.734-90.391-23.734v-11.56h5.138V637.523h-5.138V614.857l17.232-39.708,0,0c29.032-50.2,256.663-63.894,256.663-63.894,34.573-20,63.237-34.87,85.657-45.669,35.77-17.226,76.547-34.021,116.008-37.946,106.849-10.63,194.709,1.415,216.249,4.929,25.163,4.108,151.679,59.557,161.2,64.35s87.19,11.292,97.167,12.51,9.676,11.256,9.676,11.256l1.37,8.909,5.215,33.93,1.275,8.279c7.256,3.652,7.264,14.113,7.264,14.113S1856.648,674.908,1841.687,681.07Z" transform="translate(-877.122 -310.142)"/><g transform="translate(95.721 292.053)"><path class="j" d="M68.986,0c38.1,0,68.986,31.086,68.986,69.433s-30.886,69.433-68.986,69.433S0,107.78,0,69.433,30.886,0,68.986,0Z"/><g transform="translate(19.216 17.313)"><g transform="translate(38.764)"><path class="k" d="M1072.671,751.079h-19.33l6.2-53.32-7.091-50.644,22.091,1.372-7.364,49.272Z" transform="translate(-1052.455 -647.114)"/></g><g transform="translate(0 16.367)"><path class="l" d="M1017.9,735.38l-9.663-16.85,48.984-21.247,40.035-31.5,9.862,19.943-46.08,18.213Z" transform="translate(-1008.235 -665.785)"/></g><g transform="translate(1.914 15.771)"><path class="m" d="M1010.418,681.361l10.62-16.256,40.857,34.513,45.939,21.861L1094.559,739.3,1057.7,706.04Z" transform="translate(-1010.418 -665.105)"/></g><path class="n" d="M1044.356,703.91a18,18,0,1,1,18,18.117A18.059,18.059,0,0,1,1044.356,703.91Z" transform="translate(-1012.692 -651.887)"/></g></g><g transform="translate(707.426 292.053)"><ellipse class="o" cx="68.986" cy="69.433" rx="68.986" ry="69.433"/><g transform="translate(15.035 15.133)"><path class="f" d="M1755.213,753.229a54.3,54.3,0,0,1,0-108.6c29.747,0,53.95,24.359,53.95,54.3S1784.96,753.229,1755.213,753.229Zm0-103.58a49.281,49.281,0,1,0,48.962,49.28A49.177,49.177,0,0,0,1755.213,649.648Z" transform="translate(-1701.261 -644.628)"/></g><g transform="translate(19.216 17.313)"><g transform="translate(38.765)"><path class="f" d="M1770.467,751.079h-19.33l6.2-53.32-7.091-50.644,22.091,1.372-7.363,49.272Z" transform="translate(-1750.25 -647.114)"/></g><g transform="translate(0 16.367)"><path class="f" d="M1715.693,735.38l-9.663-16.85,48.984-21.247,40.035-31.5,9.862,19.943-46.08,18.213Z" transform="translate(-1706.03 -665.785)"/></g><g transform="translate(1.914 15.771)"><path class="f" d="M1708.214,681.361l10.619-16.256,40.857,34.513,45.94,21.861L1792.354,739.3,1755.5,706.04Z" transform="translate(-1708.214 -665.105)"/></g><ellipse class="f" cx="18" cy="18.117" rx="18" ry="18.117" transform="translate(31.665 33.907)"/></g></g><path class="p" d="M973.987,596.252h-45.13A41.183,41.183,0,0,0,892.872,617.5l-1.547,2.788a4.222,4.222,0,0,0,3.662,6.282H949.3a13.387,13.387,0,0,0,9.869-4.351L976.879,602.9A3.963,3.963,0,0,0,973.987,596.252Z" transform="translate(-878.808 -331.474)"/><path class="q" d="M919.182,706.571h-15.4a14.055,14.055,0,0,0-12.281,7.251l-.529.951a1.441,1.441,0,0,0,1.25,2.144h18.536a4.569,4.569,0,0,0,3.369-1.485l6.044-6.594A1.352,1.352,0,0,0,919.182,706.571Z" transform="translate(-878.808 -345.085)"/><path class="r" d="M1740.532,507.182l-230.285,5.5a8.061,8.061,0,0,1-8.231-8.088V451.2a7.505,7.505,0,0,1,7.592-7.53c98.2,1.374,131.853,4.129,152.036,11.137,17.8,6.18,59.428,31.6,80.946,44.5A4.247,4.247,0,0,1,1740.532,507.182Z" transform="translate(-954.219 -312.649)"/><path class="s" d="M1449.016,443.268q5.6.062,10.97.132V513.05l-222.163,5.308a2.921,2.921,0,0,1-1.692-5.335C1262.089,495.414,1349.034,442.127,1449.016,443.268Z" transform="translate(-921.257 -312.597)"/><path class="f" d="M1773.188,514.779l-.122.005V505.1c.784.475,1.551.931,2.29,1.375A4.471,4.471,0,0,1,1773.188,514.779Z" transform="translate(-987.659 -320.229)"/><path class="t" d="M1498.188,515.289l-27.209-2.17,1.814-74.486h25.395Z" transform="translate(-950.389 -312.028)"/><path class="g" d="M1696.807,516.664h-12.7V449.776l12.7,7.669Z" transform="translate(-976.684 -313.402)"/><path class="o" d="M1265.287,502.225l6.773,22.584-37.058.885a2.214,2.214,0,0,1-1.339-4.007C1242.029,515.629,1257.535,504.837,1265.287,502.225Z" transform="translate(-920.997 -319.873)"/><g transform="translate(308.906 128.93)"><path class="q" d="M1232.992,520.037A3.513,3.513,0,0,1,1231,513.65l.772-.536c.8-.56,1.7-1.176,2.686-1.847q1.22-.828,2.613-1.753l1.4-.927c1.063-.7,2.189-1.432,3.385-2.2q1.276-.818,2.645-1.688l.149-.093c.13-.082.262-.164.394-.245.768-.482,1.58-.992,2.414-1.506l.184-.114c.275-.172.554-.345.835-.515.412-.257.848-.524,1.288-.792.611-.371,1.23-.748,1.864-1.128,1.778-1.077,3.693-2.213,5.686-3.372q.924-.54,1.88-1.09,1.883-1.093,3.875-2.209h0l.933-.526c2.676-1.5,5.389-2.982,8.062-4.412l.878-.466q.61-.322,1.225-.651c5.095-2.686,10.329-5.32,15.566-7.836l1.627-.775q2.45-1.168,4.976-2.327c.557-.259,1.125-.518,1.7-.778,1.119-.514,2.265-1.028,3.424-1.542l1.737-.769c1.73-.768,3.574-1.566,5.633-2.438q1.6-.676,3.217-1.346c7.26-3.014,14.661-5.845,22-8.417l1.607-.562c.6-.21,1.212-.417,1.819-.623l2.289-.772q.927-.31,1.856-.614l.072-.024c.645-.215,1.3-.428,1.948-.635,1.179-.38,2.364-.76,3.558-1.132.81-.255,1.631-.508,2.457-.76,1.26-.381,2.52-.761,3.788-1.136l2.108-.612q1.991-.571,4-1.124c2.651-.734,5.354-1.447,8.027-2.119l.16-.041c.238-.06.473-.121.712-.178,1.136-.285,2.3-.57,3.471-.846.689-.167,1.391-.334,2.1-.5l.529-.123c.523-.121,1.048-.242,1.573-.359q1.047-.239,2.107-.472t2.12-.458c.714-.152,1.425-.3,2.136-.446s1.419-.292,2.14-.436l.116-.023q1.015-.2,2.031-.4c.673-.132,1.347-.26,2.028-.389.764-.143,1.526-.281,2.293-.418.486-.089.979-.176,1.474-.262l.693-.122c1.449-.25,2.895-.493,4.345-.722.721-.117,1.453-.231,2.187-.345l.111-.017q1.926-.292,3.856-.561c2.4-.334,4.809-.643,7.168-.918l.154-.018c.663-.076,1.323-.153,1.986-.222.46-.053.948-.1,1.432-.152s.985-.109,1.5-.156c.54-.058,1.108-.114,1.675-.165.742-.072,1.5-.141,2.258-.206.718-.064,1.446-.124,2.174-.179.578-.047,1.131-.092,1.688-.133l3.225-.22c.635-.041,1.269-.078,1.91-.115l.28-.015c.7-.04,1.412-.077,2.122-.11.561-.027,1.134-.055,1.705-.078l.054,0c.511-.022,1.019-.044,1.531-.061l1.262-.046q.753-.025,1.507-.046a7.1,7.1,0,0,1,5.241,2.06,7.234,7.234,0,0,1,2.186,5.21v57.719a8.937,8.937,0,0,1-8.642,8.907l-203.092,4.851Zm33.541-24.163-1.256.706q-2.2,1.232-4.275,2.433c-.636.366-1.255.724-1.868,1.083-1.978,1.151-3.873,2.276-5.639,3.345-.633.38-1.247.753-1.851,1.121q-.647.393-1.278.785c-.287.174-.553.338-.815.5l-.192.119c-.831.511-1.633,1.016-2.413,1.505l-.516.322c-.9.572-1.776,1.132-2.623,1.674q-1.77,1.135-3.34,2.168l-1.4.923q-1.378.918-2.584,1.734-1.456.99-2.654,1.825l-.369.256,38.153-.911,164.47-3.93a5.274,5.274,0,0,0,5.1-5.257V448.558a3.612,3.612,0,0,0-3.7-3.62c-.5.014-.991.029-1.486.046l-1.262.046c-.5.017-.995.039-1.495.06l-.06,0c-.567.023-1.129.05-1.686.077q-1.052.047-2.1.108l-.281.015c-.618.035-1.243.072-1.869.112l-3.2.219c-.544.039-1.087.084-1.635.128-.753.058-1.466.116-2.175.18-.752.064-1.492.131-2.234.2-.561.051-1.11.105-1.658.163-.508.046-.99.1-1.467.153-.5.049-.966.1-1.425.151-.672.07-1.318.145-1.966.22l-.152.018c-2.33.272-4.715.578-7.088.907-1.273.177-2.545.363-3.808.554l-.1.016c-.725.112-1.45.224-2.171.341q-2.162.343-4.295.714l-.691.121c-.485.085-.968.17-1.452.259-.766.138-1.519.273-2.271.415-.67.126-1.337.253-2.008.385s-1.346.263-2.015.4l-.116.024c-.7.139-1.4.28-2.1.429s-1.418.293-2.122.443-1.4.3-2.1.453-1.394.309-2.092.467c-.523.117-1.038.236-1.55.355l-.536.124c-.693.158-1.379.321-2.064.487-1.166.275-2.314.557-3.453.842-.238.057-.457.113-.674.169l-.171.044c-2.653.666-5.327,1.372-7.955,2.1q-2,.547-3.961,1.114l-2.095.607c-1.248.369-2.5.747-3.747,1.125-.812.248-1.624.5-2.43.751-1.19.371-2.363.748-3.536,1.125q-.961.306-1.914.624l-.08.025q-.918.3-1.835.607l-2.277.769c-.6.2-1.2.406-1.791.613l-1.6.559c-7.276,2.55-14.613,5.358-21.81,8.345q-1.606.668-3.2,1.338c-2.037.863-3.863,1.653-5.579,2.414l-1.732.767q-1.717.763-3.393,1.529c-.571.258-1.127.51-1.677.766-1.68.772-3.323,1.54-4.943,2.313l-1.623.773c-5.187,2.492-10.381,5.105-15.426,7.765-.4.217-.817.437-1.228.654l-.869.461C1271.37,493.206,1268.94,494.533,1266.532,495.874Z" transform="translate(-1229.503 -441.285)"/></g><g transform="translate(718.517 146.5)"><path class="u" d="M1702.165,512.754a5.18,5.18,0,0,1-3.646-1.518,6.008,6.008,0,0,1-1.757-4.278V467.985c0-2.216.326-5.048,2.11-6.166,1.614-1.013,4.332-.276,6.033.565,1.9.937,3.219,1.608,3.93,2,.076.039.181.1.285.154l.773.423c9.648,5.305,23.388,13.656,40.835,24.82.743.472,1.483.948,2.216,1.417,1.76,1.129,3.471,2.233,5.117,3.3l6.121,3.975q1.595,1.04,3.056,2c.133.085.285.184.435.281l.133.088a5.669,5.669,0,0,1,2.251,6.338,5.162,5.162,0,0,1-4.827,3.933l-.665.017-62.266,1.627C1702.254,512.754,1702.209,512.754,1702.165,512.754Zm.339-47.708a2.276,2.276,0,0,0-1.2.357,2.992,2.992,0,0,0-1.333,2.582v38.973a2.749,2.749,0,0,0,.786,1.963,2.016,2.016,0,0,0,1.454.6l62.932-1.643a2.017,2.017,0,0,0,1.818-1.581,2.437,2.437,0,0,0-.91-2.747l-.134-.087c-.139-.091-.281-.183-.421-.274-.989-.649-2-1.315-3.067-2.007l-6.107-3.967q-2.469-1.6-5.112-3.294-1.093-.7-2.206-1.412c-17.392-11.129-31.069-19.443-40.655-24.714l-.781-.427c-.079-.044-.157-.087-.236-.128-.7-.378-2.015-1.048-3.847-1.953A2.207,2.207,0,0,0,1702.5,465.047Z" transform="translate(-1696.762 -461.327)"/></g><path class="q" d="M1265.287,502.225l6.773,22.584-37.058.885a2.214,2.214,0,0,1-1.339-4.007C1242.029,515.629,1257.535,504.837,1265.287,502.225Z" transform="translate(-920.997 -319.873)"/><g transform="translate(545.983 129.193)"><path class="q" d="M1509.785,514.254a9.73,9.73,0,0,1-6.868-2.817,9.868,9.868,0,0,1-2.971-7.095v-53.4a9.328,9.328,0,0,1,9.431-9.354c101.358,1.419,132.745,3.733,152.65,11.254l1.177.444v57.31l-153.171,3.657Zm-.541-69.018a5.611,5.611,0,0,0-3.983,1.645,5.678,5.678,0,0,0-1.687,4.059v53.4a6.232,6.232,0,0,0,1.876,4.481,6.138,6.138,0,0,0,4.5,1.778l149.63-3.572v-51.2c-19.368-6.92-52.588-9.222-150.25-10.59Z" transform="translate(-1499.946 -441.585)"/></g><path class="v" d="M1968.753,578.473H1925.4a20.99,20.99,0,0,1-16.533-8.081l-16.4-20.972a3.015,3.015,0,0,1,2.353-4.877h68.721Z" transform="translate(-1002.31 -325.094)"/><path class="q" d="M1153.447,523.623l-1.768,2.976a40.8,40.8,0,0,1-32.173,19.906c-35.876,2.546-108.289,7.679-146.543,10.358-51.741,3.623-75.808,30.237-76.18,30.653C925.816,537.316,1153.447,523.623,1153.447,523.623Z" transform="translate(-879.548 -322.513)"/><g transform="translate(534.159 130.105)"><rect class="q" width="233.861" height="1.814" transform="translate(0 233.845) rotate(-89.316)"/></g><g transform="translate(242.197 360.621)"><rect class="q" width="448.31" height="1.826" transform="matrix(1, -0.02, 0.02, 1, 0, 8.804)"/></g><path class="q" d="M1452.239,577.509c0,2.474-10.963,4.479-24.486,4.479s-24.487-2-24.487-4.479,10.962-4.479,24.487-4.479S1452.239,575.036,1452.239,577.509Z" transform="translate(-942.035 -328.609)"/><path class="w" d="M1712.392,577.509c0,2.474-10.963,4.479-24.487,4.479s-24.487-2-24.487-4.479,10.963-4.479,24.487-4.479S1712.392,575.036,1712.392,577.509Z" transform="translate(-974.132 -328.609)"/><g transform="translate(671.145 194.533)"><path class="u" d="M1644.535,683.123l-1.812-.1c1.252-23.248,8.1-42.841,20.347-58.236,9.8-12.317,23.053-21.974,39.388-28.7,24.849-10.236,49.458-10.5,54.528-10.427V516.121h1.814v71.421l-.945-.039c-.273-.011-27.377-1-54.763,10.294-16.033,6.614-29.029,16.088-38.627,28.159C1652.471,641.043,1645.765,660.277,1644.535,683.123Z" transform="translate(-1642.723 -516.121)"/></g><g transform="translate(296.753 203.904)"><path class="q" d="M1215.735,692.2c-.7-60.316,2.633-102.048,5.556-126.436,3.172-26.462,6.564-38.83,6.6-38.952l1.747.493c-.135.484-13.43,49.727-12.087,164.875Z" transform="translate(-1215.64 -526.811)"/></g><g transform="translate(519.91 130.104)"><rect class="q" width="35.48" height="1.826"/></g><g transform="translate(215.123 154.91)"><g transform="translate(2.166)"><path class="h" d="M1127.151,536.917l-2.159-.869,25.849-65.127,2.159.868Z" transform="translate(-1124.992 -470.922)"/></g><ellipse class="h" cx="3.245" cy="1.737" rx="3.245" ry="1.737" transform="translate(0 64.71)"/></g><g transform="translate(90.727)"><path class="x" d="M1162.714,502.7a3.775,3.775,0,0,1-2.61-1.9,776.731,776.731,0,0,0-52.681-80.45c-29.456-39.515-75.018-92.234-124.806-118.988a3.815,3.815,0,0,1-1.553-5.145,3.767,3.767,0,0,1,5.113-1.564c22.589,12.139,46.152,30.369,70.033,54.182,19.027,18.974,38.315,41.529,57.324,67.039a785.086,785.086,0,0,1,53.187,81.25,3.815,3.815,0,0,1-1.482,5.166A3.742,3.742,0,0,1,1162.714,502.7Z" transform="translate(-980.618 -294.209)"/></g></g><g transform="translate(336.598 546.299)"><path class="d" d="M1737.606,779.858a74.581,74.581,0,0,1-23.861,9.966l-48.028.176-65.527.222-43.808.132-31.141.089h-1.407l-31.571.089h-38.055l-41.237-.045h-32.366l-42.215-.044h-32.366l-41.237-.045h-32.427l-49.741-.045h-5.568l-32.3-.044h-41.359l-32.305-.044-42.216-.045h-32.3l-41.3-.045H911.7l3.915-.487,1.713-.221,9.484-1.195,43.867-5.581h.061l22.454-2.834Z" transform="translate(-911.705 -779.858)"/></g><g transform="translate(0 358.727)"><g transform="translate(0 18.984)"><path class="y" d="M530.305,587.693l9.936-.149a2.617,2.617,0,0,1,2.647,2.586l.739,49.833a2.618,2.618,0,0,1-2.57,2.665l-9.936.15a2.618,2.618,0,0,1-2.647-2.587l-.739-49.833A2.618,2.618,0,0,1,530.305,587.693Z" transform="translate(-527.735 -587.544)"/><g transform="translate(3.491 29.211)"><path class="z" d="M540.809,625.374a4.546,4.546,0,1,1-4.614-4.508A4.561,4.561,0,0,1,540.809,625.374Z" transform="translate(-531.717 -620.865)"/><path class="q" d="M540.1,625.9a.936.936,0,1,1-.95-.928A.94.94,0,0,1,540.1,625.9Z" transform="translate(-532.52 -621.373)"/><path class="q" d="M535.166,625.977a.936.936,0,1,1-.949-.928A.94.94,0,0,1,535.166,625.977Z" transform="translate(-531.912 -621.382)"/></g><g transform="translate(3.293 15.854)"><path class="aa" d="M540.583,610.137a4.546,4.546,0,1,1-4.614-4.508A4.561,4.561,0,0,1,540.583,610.137Z" transform="translate(-531.491 -605.628)"/><path class="ab" d="M539.872,610.666a.936.936,0,1,1-.95-.927A.94.94,0,0,1,539.872,610.666Z" transform="translate(-532.294 -606.136)"/><path class="ab" d="M534.94,610.74a.936.936,0,1,1-.949-.928A.94.94,0,0,1,534.94,610.74Z" transform="translate(-531.686 -606.145)"/></g><g transform="translate(3.095 2.497)"><path class="z" d="M540.357,594.9a4.546,4.546,0,1,1-4.614-4.506A4.562,4.562,0,0,1,540.357,594.9Z" transform="translate(-531.265 -590.392)"/><path class="q" d="M539.646,595.429a.936.936,0,1,1-.95-.928A.94.94,0,0,1,539.646,595.429Z" transform="translate(-532.068 -590.899)"/><path class="q" d="M534.714,595.5a.936.936,0,1,1-.949-.928A.938.938,0,0,1,534.714,595.5Z" transform="translate(-531.46 -590.908)"/></g><g transform="translate(3.689 42.569)"><path class="z" d="M541.035,640.611a4.546,4.546,0,1,1-4.614-4.507A4.563,4.563,0,0,1,541.035,640.611Z" transform="translate(-531.943 -636.103)"/><path class="q" d="M540.324,641.14a.936.936,0,1,1-.95-.927A.939.939,0,0,1,540.324,641.14Z" transform="translate(-532.746 -636.61)"/><path class="q" d="M535.392,641.214a.936.936,0,1,1-.949-.927A.94.94,0,0,1,535.392,641.214Z" transform="translate(-532.138 -636.62)"/></g></g><path class="q" d="M529.629,609.786a5.419,5.419,0,1,1,5.419,5.455A5.437,5.437,0,0,1,529.629,609.786Z" transform="translate(-527.968 -570.63)"/><g transform="translate(8.625 40.807)"><path class="q" d="M567.115,675.484c-11.573-2.15-11.072-22.339-10.669-38.561a124.7,124.7,0,0,0-.089-13.475,9.581,9.581,0,0,0-3.765-7.113c-5.389-3.965-14.646-2.061-14.739-2.042l-.28-1.339c.4-.085,9.948-2.046,15.821,2.276a10.893,10.893,0,0,1,4.317,8.08,125.588,125.588,0,0,1,.1,13.646c-.39,15.7-.876,35.242,9.555,37.181Z" transform="translate(-537.573 -612.438)"/></g><g transform="translate(39.446)"><rect class="ac" width="114.096" height="114.835" transform="translate(16.314 70.894)"/><rect class="q" width="4.381" height="8.559" transform="translate(27.161 185.729)"/><rect class="q" width="4.381" height="8.559" transform="translate(120.103 185.729)"/><rect class="q" width="4.38" height="8.559" transform="translate(6.858 185.729)"/><path class="ad" d="M703.142,636.781h-114.1l-16.314-70.1,114.51-.789Z" transform="translate(-572.732 -565.887)"/><path class="ae" d="M654.368,611.378l-57.929.4-8.253-35.466,57.929-.4Z" transform="translate(-574.639 -567.124)"/><g transform="translate(83.219 7.466)"><path class="j" d="M667.889,586.266c-1.275-6.551,2.969-11.862,9.478-11.862s12.819,5.312,14.094,11.862-2.97,11.863-9.479,11.863S669.163,592.818,667.889,586.266Z" transform="translate(-667.663 -574.404)"/><path class="j" d="M669.785,586.266c-1.275-6.551,2.969-11.862,9.479-11.862s12.819,5.312,14.093,11.862-2.969,11.863-9.479,11.863S671.059,592.818,669.785,586.266Z" transform="translate(-667.897 -574.404)"/><path class="j" d="M671.193,586.441c-1.141-5.867,2.66-10.623,8.489-10.623s11.479,4.756,12.621,10.623-2.66,10.623-8.489,10.623S672.334,592.308,671.193,586.441Z" transform="translate(-668.074 -574.578)"/></g><g transform="translate(89.03 37.35)"><path class="j" d="M674.518,620.357c-1.274-6.552,2.97-11.862,9.479-11.862s12.82,5.311,14.094,11.862-2.97,11.862-9.479,11.862S675.793,626.908,674.518,620.357Z" transform="translate(-674.292 -608.494)"/><path class="j" d="M676.415,620.357c-1.275-6.552,2.969-11.862,9.479-11.862s12.819,5.311,14.093,11.862-2.97,11.862-9.479,11.862S677.689,626.908,676.415,620.357Z" transform="translate(-674.526 -608.494)"/><path class="j" d="M678,620.553c-1.125-5.782,2.621-10.47,8.366-10.47s11.313,4.687,12.438,10.47-2.621,10.469-8.366,10.469S679.122,626.335,678,620.553Z" transform="translate(-674.725 -608.69)"/></g><g transform="translate(25.759 49.98)"><path class="q" d="M602.222,628.448a4.425,4.425,0,0,1,4.432-5.546,7.043,7.043,0,0,1,6.59,5.546A4.426,4.426,0,0,1,608.813,634,7.044,7.044,0,0,1,602.222,628.448Z" transform="translate(-602.116 -622.902)"/><path class="af" d="M603.108,628.448a4.425,4.425,0,0,1,4.433-5.546,7.044,7.044,0,0,1,6.59,5.546A4.426,4.426,0,0,1,609.7,634,7.046,7.046,0,0,1,603.108,628.448Z" transform="translate(-602.226 -622.902)"/><path class="ag" d="M603.849,628.54a3.905,3.905,0,0,1,3.912-4.9,6.217,6.217,0,0,1,5.816,4.9,3.906,3.906,0,0,1-3.912,4.9A6.216,6.216,0,0,1,603.849,628.54Z" transform="translate(-602.319 -622.994)"/></g><g transform="translate(41.323 49.98)"><path class="q" d="M619.976,628.448a4.425,4.425,0,0,1,4.432-5.546A7.045,7.045,0,0,1,631,628.448,4.426,4.426,0,0,1,626.567,634,7.044,7.044,0,0,1,619.976,628.448Z" transform="translate(-619.87 -622.902)"/><path class="af" d="M620.862,628.448A4.425,4.425,0,0,1,625.3,622.9a7.043,7.043,0,0,1,6.59,5.546A4.426,4.426,0,0,1,627.453,634,7.045,7.045,0,0,1,620.862,628.448Z" transform="translate(-619.98 -622.902)"/><path class="ag" d="M621.6,628.54a3.9,3.9,0,0,1,3.912-4.9,6.217,6.217,0,0,1,5.816,4.9,3.905,3.905,0,0,1-3.912,4.9A6.217,6.217,0,0,1,621.6,628.54Z" transform="translate(-620.073 -622.994)"/></g><g transform="translate(59.406 49.98)"><path class="q" d="M640.605,628.448a4.425,4.425,0,0,1,4.432-5.546,7.043,7.043,0,0,1,6.59,5.546A4.426,4.426,0,0,1,647.2,634,7.044,7.044,0,0,1,640.605,628.448Z" transform="translate(-640.499 -622.902)"/><path class="af" d="M641.491,628.448a4.425,4.425,0,0,1,4.433-5.546,7.045,7.045,0,0,1,6.59,5.546A4.426,4.426,0,0,1,648.083,634,7.046,7.046,0,0,1,641.491,628.448Z" transform="translate(-640.609 -622.902)"/><path class="ag" d="M642.232,628.54a3.905,3.905,0,0,1,3.912-4.9,6.215,6.215,0,0,1,5.816,4.9,3.905,3.905,0,0,1-3.911,4.9A6.216,6.216,0,0,1,642.232,628.54Z" transform="translate(-640.702 -622.994)"/></g><path class="ah" d="M572.732,566.788v184.94h16.314V636.892Z" transform="translate(-572.732 -565.998)"/><path class="q" d="M600.345,789.623a5.146,5.146,0,1,1,5.146,5.179A5.162,5.162,0,0,1,600.345,789.623Z" transform="translate(-576.139 -592.852)"/><path class="af" d="M603.4,790a2.469,2.469,0,1,1,2.469,2.484A2.476,2.476,0,0,1,603.4,790Z" transform="translate(-576.516 -593.231)"/><path class="q" d="M706.367,789.623a5.146,5.146,0,1,1,5.146,5.179A5.162,5.162,0,0,1,706.367,789.623Z" transform="translate(-589.219 -592.852)"/><path class="af" d="M709.421,790a2.469,2.469,0,1,1,2.469,2.484A2.477,2.477,0,0,1,709.421,790Z" transform="translate(-589.596 -593.231)"/><path class="q" d="M577.184,789.623a5.145,5.145,0,1,1,5.145,5.179A5.161,5.161,0,0,1,577.184,789.623Z" transform="translate(-573.281 -592.852)"/><path class="af" d="M580.237,790a2.469,2.469,0,1,1,2.469,2.484A2.477,2.477,0,0,1,580.237,790Z" transform="translate(-573.658 -593.231)"/><path class="j" d="M0,0H33.87V25.262H0Z" transform="translate(31.542 81.502)"/><path class="j" d="M0,0H50.166V25.262H0Z" transform="translate(72.128 81.502)"/><path class="q" d="M635.671,746.126H599.86a1.026,1.026,0,0,1-1.02-1.027h0a1.027,1.027,0,0,1,1.02-1.026h35.811a1.027,1.027,0,0,1,1.02,1.026h0A1.026,1.026,0,0,1,635.671,746.126Z" transform="translate(-575.953 -587.871)"/><path class="q" d="M599.86,751.056h35.811a1.027,1.027,0,0,1,1.02,1.026h0a1.027,1.027,0,0,1-1.02,1.027H599.86a1.027,1.027,0,0,1-1.02-1.027h0A1.027,1.027,0,0,1,599.86,751.056Z" transform="translate(-575.953 -588.733)"/><path class="q" d="M599.86,758.039h35.811a1.027,1.027,0,0,1,1.02,1.027h0a1.027,1.027,0,0,1-1.02,1.026H599.86a1.026,1.026,0,0,1-1.02-1.026h0A1.027,1.027,0,0,1,599.86,758.039Z" transform="translate(-575.953 -589.594)"/></g></g><g transform="translate(179.747 192.971)"><path class="ai" d="M952.112,551.518s9.176-.1,13.965.857,12.991,3.911,10.344,4.627-13.171,1.762-16.027,2.242-5.3,3.673-8.282,3.194-7.159-4.632-7.159-4.632Z" transform="translate(-758.956 -398.359)"/><path class="ai" d="M963.781,565.093l-10.662-1.6s1.988-4.388,3.72-3.194a28.1,28.1,0,0,0,6.109,2.515C963.979,563.167,963.781,565.093,963.781,565.093Z" transform="translate(-759.963 -399.418)"/><path class="aj" d="M939.888,542.568c2.841-3.4,2.814-4.14,2.814-4.14s-26.686-33.25-29.053-36.479-22.157-56.36-22.157-56.36h0c-16.661-2.142-28.491,15.927-19.963,30.489,10.191,17.4,20.928,35.431,23.938,39.373,10.175,13.325,39.334,30.7,39.334,30.7A12.291,12.291,0,0,0,939.888,542.568Z" transform="translate(-749.546 -385.269)"/><g transform="translate(143.928 142.322)"><path class="h" d="M907.533,569.017l-4.036-3.329,14.164-17.4,4.036,3.329Z" transform="translate(-897.769 -540.283)"/><path class="h" d="M929.322,545.532c-.014.018-.028.034-.043.051a3.96,3.96,0,0,1-6.051-5.108l.025-.03a.773.773,0,0,0-.857-1.23,6.142,6.142,0,0,0-2.75,2.182,6.25,6.25,0,0,0,.828,8.1,6.154,6.154,0,0,0,10.236-3.312A.79.79,0,0,0,929.322,545.532Z" transform="translate(-899.623 -539.156)"/><path class="h" d="M904.493,575.991l.041-.053a4.019,4.019,0,0,0-.442-5.377,3.932,3.932,0,0,0-5.725.409l-.024.03a.769.769,0,0,1-1.367-.6,6.168,6.168,0,1,1,10.817,5.043,6.139,6.139,0,0,1-2.388,1.791A.794.794,0,0,1,904.493,575.991Z" transform="translate(-896.963 -542.385)"/></g><path class="ak" d="M898.24,554.91s10.229-.524,11.865-.117,6.43,2.689,6.425,3.174-.047,1.957-1.058,1.849-1.915-.837-1.776-.4,3.961.823,3.73,2.763-2.764,7.524-7.2,6.988-12.168-7.2-12.9-7.4C891.153,560.112,898.24,554.91,898.24,554.91Z" transform="translate(-752.768 -398.744)"/><g transform="translate(0 122.056)"><path class="h" d="M738.059,761.013s-6.361,5.934-5.119,10.149,6.981,7.028,7.757,12.18,3.878,7.964,6.671,7.964h13.313s2.056-3.627-2.909-4.72-6.837-7.148-6.526-12.769a101.238,101.238,0,0,0-.465-13.116l-10.549-2.5Z" transform="translate(-732.779 -545.915)"/><path class="h" d="M827.76,779.128s-1.551,12.491,1.241,13.9,36.148.937,36.148.937,0-4.216-5.74-5.153-15.824-4.372-17.531-12.023S827.76,779.128,827.76,779.128Z" transform="translate(-744.444 -547.852)"/><path class="al" d="M854.827,561.807s-1.885,23.67-4.1,52.122c-3.011,38.651-6.633,86.128-6.991,95.122-.619,15.617-3.1,40.6-3.1,40.6s-5.893,5.935-17.686,3.434c0,0-10.509-35.662-13.511-73.395q-.07-.928-.139-1.865c-2.792-38.412-7.135-119.3-7.135-119.3Z" transform="translate(-741.339 -521.28)"/><path class="am" d="M839.707,580.735,809.434,679.69q-.07-.928-.139-1.865c-2.792-38.412-7.135-119.3-7.135-119.3Z" transform="translate(-741.339 -521.28)"/><path class="an" d="M838.4,559.376s-33.975,85.724-56.316,126.01-29.321,51.528-29.321,51.528-12.8-5.153-13.963-8.665c0,0,8.543-77.773,23.5-96.732,8.453-10.714,8.731-31.8,12.54-53.56,5.224-29.841,16.494-61.918,16.494-61.918Z" transform="translate(-733.522 -516.038)"/></g><path class="ak" d="M870.169,426.575s14.157,24.379,27.744,27.418a41.182,41.182,0,0,0-2.778-11.382,4.653,4.653,0,0,1,.59-4.742q.9-1.135,1.669-2.154a82.494,82.494,0,0,0,4.948-7.152l-4.748-12.387-3.222-8.4a40.682,40.682,0,0,1-4.79,7.131C880.825,425.286,870.169,426.575,870.169,426.575Z" transform="translate(-749.729 -380.625)"/><path class="ai" d="M892.3,415.905s-1.507,12.321,7.812,20.813a82.5,82.5,0,0,0,4.948-7.152l-4.748-12.387A26.127,26.127,0,0,0,892.3,415.905Z" transform="translate(-752.449 -381.627)"/><path class="ak" d="M908.734,427.852S887.927,419.977,893,407.01s5.8-22.716,19.3-18.236,14.13,10.444,13.483,15.186S914.278,429.565,908.734,427.852Z" transform="translate(-752.448 -378.144)"/><path class="ao" d="M875.462,510.694c.615-1.236,1.254-2.478,1.92-3.737a127.2,127.2,0,0,0,8.424-19.693,97.464,97.464,0,0,0,3.72-14.814,47.048,47.048,0,0,0-.22-17.739c-.008-.041-2.107-8.342-2.123-8.373-13.127-5.916-16.383-21.156-16.383-21.156s-44.45,8.589-68.687,68.655c0,0-1.567,4.449-3.585,10.992-.435,1.421-.893,2.94-1.362,4.538C793.969,520.21,867.247,527.167,875.462,510.694Z" transform="translate(-740.71 -382.773)"/><path class="ap" d="M836.768,474.428s-12.645,22.279-4.92,39.289,26.333-9.1,26.333-9.1Z" transform="translate(-744.693 -388.848)"/><path class="aq" d="M889.016,381.737c-.148-.287-.573-.59-1.606-.894a4.29,4.29,0,0,1,2.085-.1c.564-1.435,1.948-3.884,4.6-3.935a3.274,3.274,0,0,0-2.057,1.956c3.606-2.362,10.331-3.116,27.21,2.314,22.244,7.158,11.33,20.237,7.985,21.316s-9.607-5.507-15.178-6.349-8.485,6.99-10.6,7.663-.928-1.116-3.169-2.866-3.465,2.445-3.382,5.38-4.21,5.769-4.21,5.769l-2.595-4.655c-2.595-4.656-2.108-21.676.28-24.767C888.591,382.292,888.8,382.015,889.016,381.737Z" transform="translate(-751.727 -376.804)"/><path class="ar" d="M852.513,560.665c.789-25.232,13.838-28.146,22.053-44.618.615-1.236,1.254-2.478,1.92-3.737a127.2,127.2,0,0,0,8.424-19.693,97.461,97.461,0,0,0,3.72-14.814l-22.577-8.632a9.167,9.167,0,0,0-11.384,4.313c-5.587,10.583-17.582,29.271-34.074,32.761a221.368,221.368,0,0,1-22.964,3.937c-.435,1.421-.893,2.94-1.362,4.538-3.2,10.843-7.621,24.431-6.192,34.514C791.181,557.009,852.449,562.69,852.513,560.665Z" transform="translate(-739.814 -388.125)"/><path class="y" d="M877.055,426.151s4.452,5.471,6.19,19.729a66.274,66.274,0,0,1-.838,21.546l-3.863-1.226s5.059-20.577-4.916-38.884C873.627,427.317,873.862,427,877.055,426.151Z" transform="translate(-750.156 -382.892)"/><path class="aj" d="M894.367,547.35a10.312,10.312,0,0,0,0-7.666s-24.35-22.4-25.809-26.407,4.769-50.635,4.769-50.635-16.415-17.156-26.47-15.114c-4.522.919-10.607,10.923-10.562,11.348,2.012,19.063,5.661,51.152,8.552,58.636,6.434,16.656,43.11,33.671,43.11,33.671S893.051,550.974,894.367,547.35Z" transform="translate(-745.55 -385.509)"/><path class="z" d="M883.15,477.826a1.947,1.947,0,1,0-1.4,2.384A1.945,1.945,0,0,0,883.15,477.826Z" transform="translate(-750.858 -389.086)"/></g><g transform="translate(948.727 546.299)"><path class="g" d="M1833.553,779.858l-20.863,14.1h-.061l-32.488.123,21.046-14.224Z" transform="translate(-1630.978 -779.858)"/><path class="g" d="M1664.192,779.858l-21.659,14.593-31.142.124h-1.407l21.842-14.717Z" transform="translate(-1609.985 -779.858)"/><path class="g" d="M1748.345,779.858l-21.292,14.347-30.285.123H1694.5l21.475-14.47Z" transform="translate(-1620.412 -779.858)"/></g></g><rect class="h" width="1083.383" height="2.333" transform="translate(0 560.295)"/></g></svg>