<svg xmlns="http://www.w3.org/2000/svg" width="23.912" height="23.912" viewBox="0 0 23.912 23.912"><defs><style>.a{opacity:0.5;}.b{fill:#fff;fill-rule:evenodd;}</style></defs><g class="a"><path class="b" d="M36.847,16H19.065A3.076,3.076,0,0,0,16,19.065V36.847a3.076,3.076,0,0,0,3.065,3.065H36.847a3.076,3.076,0,0,0,3.065-3.065V19.065A3.076,3.076,0,0,0,36.847,16ZM34.3,24.751c.006.138.008.278.008.418a8.853,8.853,0,0,1-.222,1.945A9.114,9.114,0,0,1,25,34.338a9.379,9.379,0,0,1-5.02-1.448,6.688,6.688,0,0,0,4.848-1.335,3.27,3.27,0,0,1-3.058-2.237,3.3,3.3,0,0,0,1.48-.055,3.258,3.258,0,0,1-2.4-1.994,3.151,3.151,0,0,1-.217-1.168v-.041a3.3,3.3,0,0,0,1.476.4,3.215,3.215,0,0,1-1.46-2.682,3.181,3.181,0,0,1,.441-1.621,9.343,9.343,0,0,0,6.747,3.368,3.277,3.277,0,0,1,5.578-2.94,6.583,6.583,0,0,0,2.08-.783,3.242,3.242,0,0,1-1.44,1.784,6.632,6.632,0,0,0,1.88-.506A6.585,6.585,0,0,1,34.3,24.751Z" transform="translate(-16 -16)"/></g></svg>