<svg xmlns="http://www.w3.org/2000/svg" width="56.113" height="58.077" viewBox="0 0 56.113 58.077"><defs><style>.a{fill:#385db3;}</style></defs><g transform="translate(0 2.116)"><path class="a" d="M143.375,0a21.371,21.371,0,1,0,21.371,21.371A21.4,21.4,0,0,0,143.375,0Zm0,36.167a14.8,14.8,0,1,1,14.8-14.8A14.812,14.812,0,0,1,143.375,36.167Zm0,0" transform="translate(-108.633 -2.116)"/><path class="a" d="M223.511,90a11.508,11.508,0,1,0,11.508,11.508A11.521,11.521,0,0,0,223.511,90Zm-1.644,18.764-6.094-6.094,2.325-2.325,3.769,3.769,7.057-7.057,2.325,2.325Zm0,0" transform="translate(-188.769 -82.145)"/><path class="a" d="M6.974,412.981,0,406.007l5.214-5.214,6.974,6.974Zm0,0" transform="translate(0 -357.02)"/><path class="a" d="M82.41,325.935a24.858,24.858,0,0,1-6.974-6.974L68.793,325.6l6.974,6.974Zm0,0" transform="translate(-61.254 -284.157)"/></g></svg>